<svg width="75" height="17" viewBox="0 0 75 17" fill="none" xmlns="http://www.w3.org/2000/svg">
<path d="M31.9201 2.90605H23.3262V1.50964H26.6882V0H28.5581V1.50964H31.9201V2.90605ZM39.1164 8.83138H37.3787V0.245315H39.1164V8.83138ZM33.6389 4.1515V0.339667H35.3766V8.66154H33.6389V5.71775H31.7879V4.1515H33.6389ZM31.3535 6.22725C31.3535 7.01981 31.0072 7.64254 30.3147 8.09543C29.6347 8.53574 28.7407 8.75589 27.6326 8.75589C26.5371 8.75589 25.6431 8.53574 24.9505 8.09543C24.258 7.65512 23.9117 7.03239 23.9117 6.22725C23.9117 5.42211 24.258 4.79939 24.9505 4.35908C25.6431 3.91877 26.5371 3.69861 27.6326 3.69861C28.7407 3.69861 29.6347 3.91877 30.3147 4.35908C31.0072 4.79939 31.3535 5.42211 31.3535 6.22725ZM25.5738 6.22725C25.5738 6.59208 25.7564 6.88772 26.1216 7.11416C26.4993 7.34061 27.003 7.45383 27.6326 7.45383C28.2622 7.45383 28.7596 7.34061 29.1247 7.11416C29.5025 6.88772 29.6914 6.59208 29.6914 6.22725C29.6914 5.86242 29.5025 5.56679 29.1247 5.34034C28.7596 5.11389 28.2622 5.00067 27.6326 5.00067C27.003 5.00067 26.4993 5.11389 26.1216 5.34034C25.7564 5.56679 25.5738 5.86242 25.5738 6.22725ZM39.513 14.7756V16.1531H24.9316V12.2658H37.2843V11.0958H24.8939V9.71829H39.1164V13.5867H26.7638V14.7756H39.513Z" fill="#222222"/>
<path d="M57.0393 10.341H42.609V8.6238H45.4611V2.66073H42.779V0.924652H56.8693V2.66073H54.1873V8.6238H57.0393V10.341ZM47.3499 8.6238H52.2985V2.66073H47.3499V8.6238ZM57.8893 13.8132V15.587H41.778V13.8132H57.8893Z" fill="#222222"/>
<path d="M73.1301 0.245315H75V16.3607H73.1301V0.245315ZM60.8719 0.8303H70.0136V15.3983H60.8719V0.8303ZM68.1438 13.6433V2.58525H62.7418V13.6433H68.1438Z" fill="#222222"/>
<path fill-rule="evenodd" clip-rule="evenodd" d="M0 0V16.2219L1.62878 16.3607C1.9822 13.9155 4.67189 8.74981 12.8889 7.23305V16.2219H14.5277V6.98927C15.3516 6.89476 16.2245 6.83489 17.1488 6.8149L17.1706 7.77538L21.3013 5.66955L17.0896 4.21166L17.1082 5.03031C16.2058 5.05005 15.3461 5.10616 14.5277 5.19483V0H12.8889V5.42417C6.96507 6.44946 3.47356 9.28537 1.63875 12.0595V0H0Z" fill="#44D596"/>
</svg>
